<svg width="1099" height="1080" viewBox="0 0 1099 1080" fill="none" xmlns="http://www.w3.org/2000/svg">
<path d="M751.167 259.861L709.405 28.0578C707.39 17.0701 697.911 9.08325 686.875 9.08325H412.125C401.089 9.08325 391.61 17.0701 389.596 28.0578L347.834 259.861C258.86 325.002 206.062 429.015 206.062 540C206.062 650.985 258.86 754.998 347.834 820.139L389.596 1051.94C391.61 1062.93 401.089 1070.92 412.125 1070.92H686.875C697.911 1070.92 707.39 1062.93 709.405 1051.94L751.167 820.139C840.14 754.998 892.938 650.985 892.938 540C892.938 429.015 840.14 325.002 751.167 259.861ZM549.5 793.917C410.614 793.917 297.646 680.023 297.646 540C297.646 399.976 410.614 286.083 549.5 286.083C688.386 286.083 801.354 399.976 801.354 540C801.354 680.023 688.386 793.917 549.5 793.917Z" fill="#444444"/>
<path d="M572.396 530.443V401.5C572.396 388.758 562.139 378.417 549.5 378.417C536.862 378.417 526.604 388.758 526.604 401.5V540C526.604 546.14 529.031 552.003 533.29 556.343L624.873 648.676C629.361 653.154 635.222 655.417 641.083 655.417C646.945 655.417 652.806 653.154 657.294 648.676C666.223 639.674 666.223 625.039 657.294 616.036L572.396 530.443Z" fill="#444444"/>
</svg>
